<svg id="Layer_1" data-name="Layer 1" xmlns="http://www.w3.org/2000/svg" viewBox="0 0 5000 5000"><defs><style>.cls-1{fill:none;}.cls-2{fill:#eff0f0;}.cls-2,.cls-3,.cls-4{stroke:#000;stroke-linecap:round;stroke-linejoin:round;stroke-width:76.86px;}.cls-3{fill:#f9ae40;}.cls-4{fill:#58595b;}</style></defs><rect class="cls-1" width="5000" height="5000"/><path class="cls-2" d="M3339.07,1823.48v571.93H3064.58V1823.48c0-151.63-61.48-288.88-160.85-388.25a547.22,547.22,0,0,0-388.14-160.74c-303.14,0-549,245.73-549,549v571.93H1692.12V1823.48c0-454.79,368.7-823.48,823.47-823.48,227.39,0,433.26,92.23,582.26,241.22S3339.07,1596.09,3339.07,1823.48Z"/><path class="cls-3" d="M3623.17,2563.64v1268A168.34,168.34,0,0,1,3454.85,4000H1545c-92.89,0-168.21-75.43-168.21-168.32v-1268A168.22,168.22,0,0,1,1545,2395.43H3454.85C3547.85,2395.43,3623.17,2470.75,3623.17,2563.64Z"/><path class="cls-4" d="M2680.7,3042.83A180.7,180.7,0,0,0,2500,2862.14c-99.79,0-180.7,80.9-180.7,180.69a180.6,180.6,0,0,0,96.41,159.78v204A84.28,84.28,0,0,0,2500,3490.9h0a84.28,84.28,0,0,0,84.29-84.28v-204A180.6,180.6,0,0,0,2680.7,3042.83Z"/></svg>